<svg id="b21cd7b5-cb42-43db-84f2-8c130a8b9e35" data-name="Layer 1" xmlns="http://www.w3.org/2000/svg" viewBox="0 0 999.1958 677.80533">
  <defs>
    <style>
      .ac149e86-6000-41fb-b8f3-d963e88969e1 {
        fill: #cfcece;
        stroke: #cfcece;
        stroke-miterlimit: 10;
        stroke-width: 44px;
      }
    </style>
  </defs>
  <path class="ac149e86-6000-41fb-b8f3-d963e88969e1" d="M232.01758,666H766.62343c1.3338,0,2.66378.02291,3.99637.07982C784.047,666.65323,957.57,682.288,976,536c16-127,12-164-14-204-5.17021-7.95417-29-54-74-48-11.70692,1.56092-52,0-70-10-14.65354-8.14086-31-30-37-46-13.77384-36.73025-80.713-90.17259-157.84778-78.48389-30.14819,4.56855-56.45886-7.42532-71.82232-35.38247C525.27826,66.72708,447.81166,16.06187,347.5,38.5,249.33333,60.45833,203.57062,142.587,204.39017,199.96057c.53885,37.72348-21.92624,63.16034-57.08527,71.39435C104.22626,281.44363,55.56663,324.78089,41.13483,386c-20.8469,88.43174-6.14947,135.68678-1.13673,148.12815.95495,2.37015,1.83474,4.75655,2.6124,7.19064,6.38977,20.00007,43.13971,112.21776,180.44208,124.28452C226.03213,665.86517,229.02654,666,232.01758,666Z" transform="translate(-8.2799 -11.0189)"/>
</svg>
